<svg xmlns="http://www.w3.org/2000/svg" viewBox="0 0 420 380" role="img" aria-label="Constant opportunity cost (straight-line PPC)" font-family="Helvetica Neue, Helvetica, Arial, sans-serif">
  <title>Constant opportunity cost (straight-line PPC)</title><desc>A straight-line production possibilities curve for bicycles and e-scooters with points A, B and C and equal-sized steps between them.</desc>
  <rect width="420" height="380" fill="#ffffff"/>
  <line x1="78.0" y1="318.0" x2="384.0" y2="318.0" stroke="#2b2b2b" stroke-width="2.2" stroke-linecap="round"/>
  <line x1="78.0" y1="318.0" x2="78.0" y2="30.0" stroke="#2b2b2b" stroke-width="2.2" stroke-linecap="round"/>
  <polygon points="389.0,318.0 380.0,314.2 380.0,321.8" fill="#2b2b2b"/>
  <polygon points="78.0,25.0 74.2,34.0 81.8,34.0" fill="#2b2b2b"/>
  <text x="66.0" y="334.0" font-size="12" text-anchor="end" fill="#2b2b2b" font-weight="400">0</text>
  <text x="231.0" y="366.0" font-size="12.5" text-anchor="middle" fill="#2b2b2b" font-weight="400">Bicycles (000s per year)</text>
  <text x="20.0" y="174.0" font-size="12.5" text-anchor="middle" fill="#2b2b2b" font-weight="400" transform="rotate(-90 20 174.0)">E-scooters (000s per year)</text>
  <text x="70.0" y="255.0" font-size="11" text-anchor="end" fill="#2b2b2b" font-weight="400">2</text>
  <text x="70.0" y="188.0" font-size="11" text-anchor="end" fill="#2b2b2b" font-weight="400">4</text>
  <text x="70.0" y="121.0" font-size="11" text-anchor="end" fill="#2b2b2b" font-weight="400">6</text>
  <text x="70.0" y="54.0" font-size="11" text-anchor="end" fill="#2b2b2b" font-weight="400">8</text>
  <text x="149.0" y="336.0" font-size="11" text-anchor="middle" fill="#2b2b2b" font-weight="400">3</text>
  <text x="220.0" y="336.0" font-size="11" text-anchor="middle" fill="#2b2b2b" font-weight="400">6</text>
  <text x="291.0" y="336.0" font-size="11" text-anchor="middle" fill="#2b2b2b" font-weight="400">9</text>
  <text x="362.0" y="336.0" font-size="11" text-anchor="middle" fill="#2b2b2b" font-weight="400">12</text>
  <line x1="78.0" y1="50.0" x2="362.0" y2="318.0" stroke="#d9432f" stroke-width="2.8" stroke-linecap="round"/>
  <line x1="78.0" y1="117.0" x2="149.0" y2="117.0" stroke="#27b5c2" stroke-width="1.5" stroke-linecap="butt" stroke-dasharray="5 4"/>
  <line x1="149.0" y1="117.0" x2="149.0" y2="318.0" stroke="#27b5c2" stroke-width="1.5" stroke-linecap="butt" stroke-dasharray="5 4"/>
  <line x1="78.0" y1="184.0" x2="220.0" y2="184.0" stroke="#27b5c2" stroke-width="1.5" stroke-linecap="butt" stroke-dasharray="5 4"/>
  <line x1="220.0" y1="184.0" x2="220.0" y2="318.0" stroke="#27b5c2" stroke-width="1.5" stroke-linecap="butt" stroke-dasharray="5 4"/>
  <line x1="78.0" y1="251.0" x2="291.0" y2="251.0" stroke="#27b5c2" stroke-width="1.5" stroke-linecap="butt" stroke-dasharray="5 4"/>
  <line x1="291.0" y1="251.0" x2="291.0" y2="318.0" stroke="#27b5c2" stroke-width="1.5" stroke-linecap="butt" stroke-dasharray="5 4"/>
  <line x1="149.0" y1="117.0" x2="220.0" y2="117.0" stroke="#4a3f9f" stroke-width="1.8" stroke-linecap="butt" stroke-dasharray="4 3"/>
  <line x1="220.0" y1="117.0" x2="220.0" y2="184.0" stroke="#4a3f9f" stroke-width="1.8" stroke-linecap="butt" stroke-dasharray="4 3"/>
  <line x1="220.0" y1="184.0" x2="291.0" y2="184.0" stroke="#4a3f9f" stroke-width="1.8" stroke-linecap="butt" stroke-dasharray="4 3"/>
  <line x1="291.0" y1="184.0" x2="291.0" y2="251.0" stroke="#4a3f9f" stroke-width="1.8" stroke-linecap="butt" stroke-dasharray="4 3"/>
  <text x="184.5" y="111.0" font-size="11.5" text-anchor="middle" fill="#4a3f9f" font-weight="400">+3</text>
  <text x="255.5" y="178.0" font-size="11.5" text-anchor="middle" fill="#4a3f9f" font-weight="400">+3</text>
  <text x="226.0" y="154.5" font-size="11.5" text-anchor="start" fill="#4a3f9f" font-weight="400">&#8722;2</text>
  <text x="297.0" y="221.5" font-size="11.5" text-anchor="start" fill="#4a3f9f" font-weight="400">&#8722;2</text>
  <circle cx="149.0" cy="117.0" r="3.4" fill="#d9432f"/>
  <text x="139.0" y="134.0" font-size="12.5" text-anchor="end" fill="#2b2b2b" font-weight="400">A</text>
  <circle cx="220.0" cy="184.0" r="3.4" fill="#d9432f"/>
  <text x="210.0" y="201.0" font-size="12.5" text-anchor="end" fill="#2b2b2b" font-weight="400">B</text>
  <circle cx="291.0" cy="251.0" r="3.4" fill="#d9432f"/>
  <text x="281.0" y="268.0" font-size="12.5" text-anchor="end" fill="#2b2b2b" font-weight="400">C</text>
</svg>
